# File created by Blade
# Date/Time:  Tue Sep 30 19:29:42 2014
#---------------------------------------------------------
:version 1.10
:name HOM
:units
  mass 1.0
  length 1.000000
  angle deg
:documentation
     Acclaim Skeleton File
:root
   axis xyz
   order TX TY TZ RX RY RZ
   position 0.000000 0.000000 0.000000
   orientation 0 0 0
:bonedata
   begin
      id 1
      name RightUpLeg_dum
      direction -1.000000 0.000000 0.000000
      length 3.766986
      axis 0.0 0.0 0.0 xyz
   end
   begin
      id 2
      name LeftUpLeg_dum
      direction 1.000000 0.000000 0.000000
      length 3.766986
      axis 0.0 0.0 0.0 xyz
   end
   begin
      id 3
      name Spine_dum
      direction 0.000000 1.000000 0.000000
      length 7.779697
      axis 0.0 0.0 0.0 xyz
   end
   begin
      id 4
      name RightUpLeg
      direction 0.000000 -1.000000 0.000000
      length 18.017682
      axis 0.0 0.0 0.0 xyz
      dof rx ry rz
   end
   begin
      id 5
      name RightLeg
      direction 0.000000 -1.000000 0.000000
      length 16.881075
      axis 0.0 0.0 0.0 xyz
      dof rx ry rz
   end
   begin
      id 6
      name RightFoot
      direction 0.000000 -0.258819 0.965926
      length 5.770812
      axis 15.0 0.0 0.0 xyz
      dof rx ry rz
   end
   begin
      id 7
      name RightToeBase
      direction 0.000000 0.000000 1.000000
      length 2.952750
      axis 0.0 0.0 0.0 xyz
      dof rx ry rz
   end
   begin
      id 8
      name LeftUpLeg
      direction 0.000000 -1.000000 0.000000
      length 18.017682
      axis 0.0 0.0 0.0 xyz
      dof rx ry rz
   end
   begin
      id 9
      name LeftLeg
      direction 0.000000 -1.000000 0.000000
      length 16.881075
      axis 0.0 0.0 0.0 xyz
      dof rx ry rz
   end
   begin
      id 10
      name LeftFoot
      direction 0.000000 -0.258819 0.965926
      length 5.770812
      axis 15.0 0.0 0.0 xyz
      dof rx ry rz
   end
   begin
      id 11
      name LeftToeBase
      direction 0.000000 0.000000 1.000000
      length 2.952750
      axis 0.0 0.0 0.0 xyz
      dof rx ry rz
   end
   begin
      id 12
      name Spine
      direction 0.000000 1.000000 0.000000
      length 0.000000
      axis 0.0 0.0 0.0 xyz
      dof rx ry rz
   end
   begin
      id 13
      name Spine_dum1
      direction 0.000000 1.000000 0.000000
      length 10.941760
      axis 0.0 0.0 0.0 xyz
   end
   begin
      id 14
      name Spine_dum2
      direction 0.000000 1.000000 0.000000
      length 10.941760
      axis 0.0 0.0 0.0 xyz
   end
   begin
      id 15
      name Spine_dum3
      direction 0.000000 1.000000 0.000000
      length 16.646042
      axis 0.0 0.0 0.0 xyz
   end
   begin
      id 16
      name RightShoulder
      direction -1.000000 0.000000 0.000000
      length 7.708937
      axis 0.0 0.0 90.0 xyz
      dof rx ry rz
   end
   begin
      id 17
      name RightArm
      direction -1.000000 0.000000 0.000000
      length 11.521345
      axis 0.0 0.0 90.0 xyz
      dof rx ry rz
   end
   begin
      id 18
      name RightForeArm
      direction -1.000000 0.000000 0.000000
      length 10.175898
      axis 0.0 0.0 90.0 xyz
      dof ry rz rx
   end
   begin
      id 19
      name RightHand
      direction -1.000000 0.000000 0.000000
      length 0.000000
      axis 0.0 0.0 90.0 xyz
      dof rx ry rz
   end
   begin
      id 20
      name RightHand_dum1
      direction -1.000000 0.000000 0.000000
      length 3.937000
      axis 0.0 0.0 90.0 xyz
   end
   begin
      id 21
      name RightHand_dum2
      direction 0.000000 0.000000 0.000000
      length 0.000000
      axis 0.0 0.0 90.0 xyz
   end
   begin
      id 22
      name RightHandThumb1
      direction 0.000000 0.000000 1.000000
      length 3.937000
      axis 0.0 0.0 90.0 xyz
      dof rx rz ry
   end
   begin
      id 23
      name LeftShoulder
      direction 1.000000 0.000000 0.000000
      length 7.708937
      axis 0.0 0.0 -90.0 xyz
      dof rx ry rz
   end
   begin
      id 24
      name LeftArm
      direction 1.000000 0.000000 0.000000
      length 11.521345
      axis 0.0 0.0 -90.0 xyz
      dof rx ry rz
   end
   begin
      id 25
      name LeftForeArm
      direction 1.000000 0.000000 0.000000
      length 10.175898
      axis 0.0 0.0 -90.0 xyz
      dof ry rz rx
   end
   begin
      id 26
      name LeftHand
      direction 1.000000 0.000000 0.000000
      length 0.000000
      axis 0.0 0.0 -90.0 xyz
      dof rx ry rz
   end
   begin
      id 27
      name LeftHand_dum1
      direction 1.000000 0.000000 0.000000
      length 3.937000
      axis 0.0 0.0 -90.0 xyz
   end
   begin
      id 28
      name LeftHand_dum2
      direction 0.000000 0.000000 0.000000
      length 0.000000
      axis 0.0 0.0 -90.0 xyz
   end
   begin
      id 29
      name LeftHandThumb1
      direction 0.000000 0.000000 1.000000
      length 3.937000
      axis 0.0 0.0 -90.0 xyz
      dof rx rz ry
   end
   begin
      id 30
      name Head
      direction 0.000000 1.000000 0.000000
      length 4.527550
      axis 0.0 0.0 0.0 xyz
      dof rx ry rz
   end
:hierarchy
   begin
      root RightUpLeg_dum LeftUpLeg_dum Spine_dum
      RightUpLeg_dum RightUpLeg
      LeftUpLeg_dum LeftUpLeg
      Spine_dum Spine
      RightUpLeg RightLeg
      RightLeg RightFoot
      RightFoot RightToeBase
      LeftUpLeg LeftLeg
      LeftLeg LeftFoot
      LeftFoot LeftToeBase
      Spine Spine_dum1 Spine_dum2 Spine_dum3
      Spine_dum1 RightShoulder
      Spine_dum2 LeftShoulder
      Spine_dum3 Head
      RightShoulder RightArm
      RightArm RightForeArm
      RightForeArm RightHand
      RightHand RightHand_dum1 RightHand_dum2
      RightHand_dum2 RightHandThumb1
      LeftShoulder LeftArm
      LeftArm LeftForeArm
      LeftForeArm LeftHand
      LeftHand LeftHand_dum1 LeftHand_dum2
      LeftHand_dum2 LeftHandThumb1
   end

# File created by Blade
# Date/Time:  Mon Sep 22 17:38:34 2014
# Frame Rate: 120.000 fps
#------------------------------------------------------
:FULLY-SPECIFIED
:DEGREES
562
root 1.746609 37.783124 5.473535 -23.242761 -37.957916 11.423133
RightUpLeg 16.559508 11.013099 -2.363463
RightLeg 6.112030 -0.000000 -0.000000
RightFoot -10.116963 0.003912 9.987766
RightToeBase 13.757610 -0.000000 -0.000000
LeftUpLeg -36.101618 -21.995550 -3.130991
LeftLeg 4.669783 -0.000000 -0.000000
LeftFoot 9.135367 17.170190 -27.843260
LeftToeBase -2.088160 -0.000000 0.000000
Spine 25.271396 5.755618 -4.966645
RightShoulder 4.736527 -26.461234 -13.795654
RightArm 26.758554 -22.602415 57.777063
RightForeArm 4.100443 -0.000000 43.899602
RightHand -0.546152 -0.000000 -2.414490
RightHandThumb1 -24.326973 -0.000000 -32.862282
LeftShoulder -22.659231 29.953002 -0.061892
LeftArm 52.266090 -39.753081 -56.768589
LeftForeArm 37.736114 -0.000000 55.466378
LeftHand -17.285387 -0.000000 -28.092008
LeftHandThumb1 -26.253704 0.000000 33.147579
Head 18.520356 31.753705 -6.312763
563
root 1.739147 37.774830 5.476609 -23.165593 -37.591287 11.218426
RightUpLeg 16.702909 10.811698 -2.248063
RightLeg 6.099974 -0.000000 -0.000000
RightFoot -10.195575 -0.226007 9.978198
RightToeBase 13.743782 -0.000000 -0.000000
LeftUpLeg -36.105296 -21.892674 -3.457865
LeftLeg 4.861153 -0.000000 -0.000000
LeftFoot 9.660177 16.974461 -27.710056
LeftToeBase -2.263485 -0.000000 0.000000
Spine 25.311754 5.175180 -4.980187
RightShoulder 4.557259 -26.478855 -13.710923
RightArm 26.747748 -22.664636 57.636642
RightForeArm 4.276579 0.000000 44.204029
RightHand -0.546666 -0.000000 -2.341583
RightHandThumb1 -24.326973 -0.000000 -32.862282
LeftShoulder -22.642601 29.935209 -0.128739
LeftArm 52.144372 -39.846259 -56.647449
LeftForeArm 37.747459 -0.000000 55.365432
LeftHand -17.309610 -0.000000 -28.123529
LeftHandThumb1 -26.253704 0.000000 33.147579
Head 18.740393 32.177352 -6.143321
564
root 1.734939 37.766512 5.477351 -23.115228 -37.250720 11.021487
RightUpLeg 16.884126 10.832422 -2.052754
RightLeg 6.067475 -0.000000 -0.000000
RightFoot -10.285214 -0.663652 10.012505
RightToeBase 13.647217 -0.000000 -0.000000
LeftUpLeg -36.067210 -21.696018 -3.840155
LeftLeg 5.087338 -0.000000 -0.000000
LeftFoot 10.414461 16.912102 -27.794785
LeftToeBase -2.156860 -0.000000 0.000000
Spine 25.383955 4.687055 -4.965813
RightShoulder 4.369984 -26.536643 -13.585432
RightArm 26.678218 -22.621120 57.513185
RightForeArm 4.527127 0.000000 44.537529
RightHand -0.458326 -0.000000 -2.237169
RightHandThumb1 -24.326973 -0.000000 -32.862282
LeftShoulder -22.529845 29.948338 -0.118457
LeftArm 52.082939 -39.947353 -56.648550
LeftForeArm 37.752481 -0.000000 55.279235
LeftHand -17.344602 0.000000 -27.976371
LeftHandThumb1 -26.253704 0.000000 33.147579
Head 18.803748 32.292750 -6.154251
565
root 1.729764 37.759664 5.482935 -23.107309 -36.896504 10.839256
RightUpLeg 17.123324 10.919935 -1.840354
RightLeg 6.012124 -0.000000 -0.000000
RightFoot -10.397424 -1.162096 10.089893
RightToeBase 13.598134 -0.000000 -0.000000
LeftUpLeg -35.996556 -21.531913 -4.247684
LeftLeg 5.377731 -0.000000 -0.000000
LeftFoot 11.228957 17.003137 -27.968782
LeftToeBase -2.056976 -0.000000 0.000000
Spine 25.488620 4.248127 -4.951054
RightShoulder 4.171140 -26.601674 -13.421922
RightArm 26.529933 -22.563485 57.411436
RightForeArm 4.696874 -0.000000 44.885150
RightHand -0.371688 -0.000000 -2.298388
RightHandThumb1 -24.326973 -0.000000 -32.862282
LeftShoulder -22.383207 29.968178 -0.056991
LeftArm 52.088851 -40.019831 -56.751450
LeftForeArm 37.801254 -0.000000 55.205996
LeftHand -17.381449 -0.000000 -27.748661
LeftHandThumb1 -26.253704 0.000000 33.147579
Head 18.824872 32.276893 -6.187964
